<svg width="72" height="72" viewBox="0 0 72 72" fill="none" xmlns="http://www.w3.org/2000/svg">
<rect x="0.621094" width="71.3789" height="71.3789" rx="7.93099" fill="#323232"/>
<g clip-path="url(#clip0_1315_209)">
<path d="M28.3397 48.8533L27.3843 50.3472C26.7132 51.4987 25.2269 51.8932 24.0645 51.2285C22.9022 50.5635 22.5037 49.0911 23.1749 47.9395L23.7811 47.0549C24.0132 46.7245 24.586 46.1539 25.7319 46.2613C25.7319 46.2613 28.4283 46.5511 28.6235 47.9395C28.6235 47.9395 28.6499 48.3963 28.3397 48.8533ZM55.2946 39.1334H49.5615C49.1709 39.1074 49.0006 38.9692 48.9333 38.8888L48.9292 38.8815L43.4492 29.9978C42.846 29.0838 41.8881 31.4212 41.8881 31.4212C40.7443 34.0257 42.0505 36.9866 42.5056 37.8817L49.9969 50.344C50.6678 51.4954 52.1541 51.8902 53.3168 51.2251C54.479 50.5602 54.8774 49.0877 54.2062 47.9361L52.0748 44.2787C52.0334 44.19 51.9615 43.9496 52.3987 43.9485H55.2946C56.6369 43.9485 57.725 42.8705 57.725 41.5408C57.725 40.2111 56.6369 39.1334 55.2946 39.1334ZM41.4885 42.4065C41.4885 42.4065 41.7945 43.9486 40.6104 43.9486L22.0866 43.9485C20.7443 43.9485 19.6562 42.8705 19.6562 41.5408C19.6562 40.2111 20.7443 39.1332 22.0866 39.1332H27.5354C28.4151 39.0828 28.6235 38.5796 28.6235 38.5796L28.6285 38.5822L35.7409 26.3778L35.7389 26.3774C35.8685 26.1416 35.7604 25.9188 35.7417 25.8836L33.3927 21.853C32.7216 20.7016 33.1199 19.2289 34.2823 18.5643C35.4448 17.8994 36.931 18.2938 37.6022 19.4454L38.6916 21.3147L39.7791 19.4487C40.4502 18.2973 41.9365 17.9026 43.099 18.5676C44.2613 19.2325 44.6596 20.7047 43.9885 21.8563L34.0912 38.839C34.0479 38.9424 34.0347 39.1047 34.3567 39.1332L37.6022 39.1334C37.6022 39.1334 41.0228 39.2433 41.4885 42.4065Z" fill="white"/>
</g>
<defs>
<clipPath id="clip0_1315_209">
<rect width="38.0687" height="38.0687" fill="white" transform="translate(19.6562 16.6551)"/>
</clipPath>
</defs>
</svg>
