<svg width="72" height="72" viewBox="0 0 72 72" fill="none" xmlns="http://www.w3.org/2000/svg">
<rect width="71.3789" height="71.3789" rx="7.93099" fill="white"/>
<g clip-path="url(#clip0_1315_201)">
<path d="M36.349 34.506L49.2637 49.6243C48.7939 51.2229 47.3014 52.3445 45.6332 52.3445C44.9072 52.3445 44.2715 52.163 43.7269 51.8L27.8416 42.7265L36.349 34.506Z" fill="#EA4335"/>
<path d="M21.1232 32.3784L27.9319 28.4747L35.1934 35.6458L27.8408 42.7264L21.0327 38.9138C19.8525 38.2782 19.0354 37.0075 19.0354 35.6458C19.1264 34.2841 19.943 33.0134 21.1232 32.3784Z" fill="#FBBC04"/>
<path d="M36.3802 36.8254L27.932 28.4748L43.6359 19.5789C44.1804 19.2159 44.9072 19.0344 45.6332 19.0344C47.3574 19.0344 48.9006 20.2146 49.2637 21.7578L36.3802 36.8254Z" fill="#34A853"/>
<path d="M49.2631 21.7578C49.3535 22.0298 49.3535 22.3935 49.3535 22.7559V48.6269C49.3535 48.9893 49.3535 49.2619 49.2624 49.6249L35.1916 35.6458L49.2631 21.7578Z" fill="#4285F4"/>
</g>
<defs>
<clipPath id="clip0_1315_201">
<rect width="30.3186" height="33.3101" fill="white" transform="matrix(-1 0 0 1 49.3535 19.0344)"/>
</clipPath>
</defs>
</svg>
